<svg width="40" height="40" viewBox="0 0 40 40" fill="none" xmlns="http://www.w3.org/2000/svg">
<rect width="40" height="40" rx="12" fill="#F0F2F5"/>
<g clip-path="url(#clip0_1_25)">
<path fill-rule="evenodd" clip-rule="evenodd" d="M20 11.875C15.5127 11.875 11.875 15.5127 11.875 20C11.875 24.4873 15.5127 28.125 20 28.125C24.4873 28.125 28.125 24.4873 28.125 20C28.1203 15.5146 24.4853 11.8797 20 11.875ZM20 26.875C16.203 26.875 13.125 23.797 13.125 20C13.125 16.203 16.203 13.125 20 13.125C23.797 13.125 26.875 16.203 26.875 20C26.8707 23.7952 23.7952 26.8707 20 26.875ZM23.4703 15.6906L18.4703 18.1906C18.3494 18.2513 18.2513 18.3494 18.1906 18.4703L15.6906 23.4703C15.5936 23.6641 15.604 23.8944 15.718 24.0787C15.8319 24.263 16.0333 24.3752 16.25 24.375C16.347 24.3749 16.4427 24.3524 16.5297 24.3094L21.5297 21.8094C21.6506 21.7487 21.7487 21.6506 21.8094 21.5297L24.3094 16.5297C24.4303 16.2889 24.3834 15.9977 24.1928 15.8072C24.0023 15.6166 23.7111 15.5697 23.4703 15.6906ZM20.7812 20.7812L17.6477 22.3523L19.2188 19.2188L22.3555 17.6508L20.7812 20.7812Z" fill="#121717"/>
</g>
<defs>
<clipPath id="clip0_1_25">
<rect width="20" height="20" fill="white" transform="translate(10 10)"/>
</clipPath>
</defs>
</svg>
